<svg width="34" height="34" viewBox="0 0 34 34" fill="none" xmlns="http://www.w3.org/2000/svg">
  <!-- HTML tags -->
  <path d="M7 12L6 10L7 8M13 12L14 10L13 8" stroke="#c4b5fd" stroke-width="2" stroke-linecap="round" stroke-linejoin="round"/>
  <!-- CSS braces -->
  <path d="M20 8C20 8 19 8 19 9V11C19 12 18 12 18 12M20 14C20 14 19 14 19 13V11C19 10 18 10 18 10" stroke="#a78bfa" stroke-width="2" stroke-linecap="round"/>
  <path d="M26 8C26 8 27 8 27 9V11C27 12 28 12 28 12M26 14C26 14 27 14 27 13V11C27 10 28 10 28 10" stroke="#a78bfa" stroke-width="2" stroke-linecap="round"/>
  <!-- Document -->
  <rect x="8" y="18" width="18" height="10" rx="1" stroke="#c4b5fd" stroke-width="2"/>
  <path d="M11 21H23M11 24H19" stroke="#a78bfa" stroke-width="1.5" stroke-linecap="round"/>
</svg>