<svg width="34" height="34" viewBox="0 0 34 34" fill="none" xmlns="http://www.w3.org/2000/svg">
  <!-- Bird -->
  <ellipse cx="18" cy="18" rx="6" ry="5" stroke="#c4b5fd" stroke-width="2"/>
  <!-- Head -->
  <circle cx="13" cy="15" r="4" stroke="#c4b5fd" stroke-width="2"/>
  <circle cx="12" cy="15" r="1" fill="#a78bfa"/>
  <!-- Beak -->
  <path d="M9 15L6 14" stroke="#c4b5fd" stroke-width="2" stroke-linecap="round"/>
  <!-- Wing -->
  <path d="M18 16C18 16 22 14 24 15" stroke="#a78bfa" stroke-width="2" stroke-linecap="round"/>
  <!-- Tail -->
  <path d="M24 18L28 17M24 20L27 21" stroke="#c4b5fd" stroke-width="2" stroke-linecap="round"/>
  <!-- Sun -->
  <circle cx="26" cy="8" r="2" stroke="#a78bfa" stroke-width="1.5"/>
  <path d="M26 5V6M26 10V11M29 8H28M24 8H23M28 6L27.5 6.5M24.5 9.5L24 10M28 10L27.5 9.5M24.5 6.5L24 6" stroke="#a78bfa" stroke-width="1.5" stroke-linecap="round"/>
</svg>