<svg width="34" height="34" viewBox="0 0 34 34" fill="none" xmlns="http://www.w3.org/2000/svg">
  <!-- Microphone with infinity symbol -->
  <rect x="14" y="7" width="6" height="9" rx="3" stroke="#c4b5fd" stroke-width="2"/>
  <path d="M17 16V20" stroke="#c4b5fd" stroke-width="2" stroke-linecap="round"/>
  <!-- Infinity -->
  <path d="M8 24C8 24 9 22 11 22C13 22 14 24 16 24C18 24 19 22 21 22C23 22 24 24 24 24C24 24 23 26 21 26C19 26 18 24 16 24C14 24 13 26 11 26C9 26 8 24 8 24Z" stroke="#a78bfa" stroke-width="2"/>
</svg>