<svg width="34" height="34" viewBox="0 0 34 34" fill="none" xmlns="http://www.w3.org/2000/svg">
  <!-- Coffee cup -->
  <path d="M8 14H24M8 14V24C8 26.2091 9.79086 28 12 28H20C22.2091 28 24 26.2091 24 24V14M8 14V11C8 9.89543 8.89543 9 10 9H22C23.1046 9 24 9.89543 24 11V14" stroke="#c4b5fd" stroke-width="2" stroke-linecap="round" stroke-linejoin="round"/>
  <!-- Handle -->
  <path d="M24 16H26C27.1046 16 28 16.8954 28 18V20C28 21.1046 27.1046 22 26 22H24" stroke="#a78bfa" stroke-width="2" stroke-linecap="round"/>
  <!-- Steam -->
  <path d="M12 6C12 6 12 4 13 4C14 4 14 5 14 5M16 6C16 6 16 4 17 4C18 4 18 5 18 5M20 6C20 6 20 4 21 4C22 4 22 5 22 5" stroke="#c4b5fd" stroke-width="2" stroke-linecap="round"/>
</svg>