<svg width="34" height="34" viewBox="0 0 34 34" fill="none" xmlns="http://www.w3.org/2000/svg">
  <!-- Epic badge with triple stars -->
  <path d="M17 5L27 10V20L17 28L7 20V10L17 5Z" stroke="#c4b5fd" stroke-width="2" stroke-linejoin="round"/>
  <path d="M17 8L24 12V20L17 25L10 20V12L17 8Z" stroke="#a78bfa" stroke-width="2" stroke-linejoin="round"/>
  <!-- Three stars -->
  <path d="M11 12L12 14L14 14.5L12 15L11 17L10 15L8 14.5L10 14L11 12Z" fill="#a78bfa"/>
  <path d="M17 10L18 12L20 12.5L18 13L17 15L16 13L14 12.5L16 12L17 10Z" fill="#c4b5fd"/>
  <path d="M23 12L24 14L26 14.5L24 15L23 17L22 15L20 14.5L22 14L23 12Z" fill="#a78bfa"/>
</svg>