<svg width="34" height="34" viewBox="0 0 34 34" fill="none" xmlns="http://www.w3.org/2000/svg">
  <!-- Crab with gear -->
  <ellipse cx="17" cy="18" rx="6" ry="4" stroke="#c4b5fd" stroke-width="2"/>
  <!-- Claws -->
  <path d="M11 16C11 16 9 15 8 14C7 13 7 11 7 11M23 16C23 16 25 15 26 14C27 13 27 11 27 11" stroke="#c4b5fd" stroke-width="2" stroke-linecap="round"/>
  <!-- Eyes -->
  <circle cx="14" cy="17" r="1" fill="#a78bfa"/>
  <circle cx="20" cy="17" r="1" fill="#a78bfa"/>
  <!-- Legs -->
  <path d="M13 21L11 24M17 22V25M21 21L23 24" stroke="#c4b5fd" stroke-width="2" stroke-linecap="round"/>
  <!-- Gear -->
  <circle cx="17" cy="10" r="2" stroke="#a78bfa" stroke-width="1.5"/>
  <path d="M17 7V8M17 12V13M20 10H19M15 10H14" stroke="#a78bfa" stroke-width="1.5" stroke-linecap="round"/>
</svg>