<svg width="34" height="34" viewBox="0 0 34 34" fill="none" xmlns="http://www.w3.org/2000/svg">
  <!-- Gears/UML -->
  <circle cx="13" cy="15" r="5" stroke="#c4b5fd" stroke-width="2"/>
  <path d="M13 9V11M13 19V21M18 15H16M10 15H8M16.5 11.5L15.4 12.6M10.6 17.4L9.5 18.5M16.5 18.5L15.4 17.4M10.6 12.6L9.5 11.5" stroke="#c4b5fd" stroke-width="1.5" stroke-linecap="round"/>
  <circle cx="23" cy="21" r="4" stroke="#a78bfa" stroke-width="2"/>
  <path d="M23 16V17.5M23 24.5V26M27 21H25.5M20.5 21H19M25.5 17.5L24.8 18.2M21.2 22.8L20.5 23.5M25.5 24.5L24.8 23.8M21.2 19.2L20.5 18.5" stroke="#a78bfa" stroke-width="1.5" stroke-linecap="round"/>
  <!-- Connection -->
  <path d="M17 17L20 19" stroke="#c4b5fd" stroke-width="1.5"/>
</svg>