<svg width="34" height="34" viewBox="0 0 34 34" fill="none" xmlns="http://www.w3.org/2000/svg">
  <!-- Rocket -->
  <path d="M17 6C17 6 12 8 10 12C8 16 8 20 8 20L12 22L14 26C14 26 18 26 22 24C26 22 28 17 28 17C28 17 25 8 17 6Z" stroke="#c4b5fd" stroke-width="2" stroke-linejoin="round"/>
  <!-- Window -->
  <circle cx="18" cy="14" r="3" stroke="#a78bfa" stroke-width="2"/>
  <circle cx="18" cy="14" r="1.5" fill="#a78bfa"/>
  <!-- Flames -->
  <path d="M10 22C10 22 8 24 8 26M14 26C14 26 14 28 15 28" stroke="#a78bfa" stroke-width="2" stroke-linecap="round"/>
  <!-- Wings -->
  <path d="M10 16C10 16 6 16 6 20L10 18" stroke="#c4b5fd" stroke-width="2" stroke-linejoin="round"/>
  <path d="M18 24C18 24 18 28 22 28L20 24" stroke="#c4b5fd" stroke-width="2" stroke-linejoin="round"/>
</svg>